<svg width="99" height="39" xmlns="http://www.w3.org/2000/svg"><g fill="none" fill-rule="evenodd"><g fill="#18273B"><path d="M55.767 13.499a213.125 213.125 0 0 1-.166-7.71h-.082a102.483 102.483 0 0 1-2.067 7.264l-2.26 7.32h-3.278l-1.984-7.264a86.65 86.65 0 0 1-1.68-7.32h-.055c-.11 2.533-.193 5.428-.331 7.765l-.33 7.125h-3.885l1.184-18.758h5.593l1.819 6.262c.578 2.17 1.157 4.509 1.57 6.707h.083c.524-2.17 1.157-4.647 1.764-6.735l1.983-6.234h5.483l1.02 18.758h-4.106l-.275-7.18zM62.27 20.679h4.214V1.921H62.27zM69.157 16.31c1.13.584 2.865 1.169 4.656 1.169 1.929 0 2.948-.808 2.948-2.032 0-1.169-.882-1.837-3.113-2.644-3.086-1.085-5.097-2.81-5.097-5.538 0-3.201 2.645-5.65 7.026-5.65 2.093 0 3.636.445 4.738.946l-.936 3.424a8.754 8.754 0 0 0-3.885-.891c-1.819 0-2.7.835-2.7 1.809 0 1.197 1.047 1.725 3.444 2.644 3.278 1.224 4.822 2.95 4.822 5.594 0 3.145-2.397 5.816-7.495 5.816-2.121 0-4.215-.556-5.262-1.14l.854-3.507zM82.795 1.921h4.16v8.294h.083c.414-.724.854-1.392 1.268-2.06l4.215-6.234h5.152L91.53 9.91l6.475 10.77H93.1l-4.546-8.099-1.598 1.976v6.123h-4.16V1.92z"/></g><g fill="#18273B"><path d="M44.943 28.742a6.074 6.074 0 0 1-1.993.353c-1.047 0-1.837-.27-2.425-.835-.55-.529-.872-1.355-.863-2.3 0-1.977 1.396-3.248 3.444-3.248.763 0 1.36.158 1.644.297l-.248.919c-.34-.149-.753-.27-1.405-.27-1.322 0-2.25.79-2.25 2.246 0 1.42.863 2.263 2.15 2.263.403 0 .706-.055.854-.13V26.48h-1.094v-.9h2.186v3.163zM45.733 22.777h1.13v5.298h2.543v.955h-3.673zM50.408 25.931c0 1.271.634 2.283 1.717 2.283 1.093 0 1.708-1.02 1.708-2.329 0-1.178-.578-2.291-1.708-2.291-1.12 0-1.717 1.048-1.717 2.337m4.62-.092c0 2.096-1.259 3.293-2.967 3.293-1.745 0-2.847-1.345-2.847-3.182 0-1.92 1.194-3.275 2.939-3.275 1.81 0 2.875 1.383 2.875 3.164M56.754 28.204a4.9 4.9 0 0 0 .597.028c.726 0 1.369-.278 1.369-1.048 0-.724-.625-1.02-1.406-1.02h-.56v2.04zm0-2.875h.579c.78 0 1.221-.372 1.221-.9 0-.585-.44-.854-1.157-.854-.33 0-.524.019-.643.047v1.707zm-1.12-2.468c.358-.074 1.01-.13 1.644-.13.835 0 1.35.102 1.772.399.386.232.643.64.643 1.169 0 .575-.358 1.104-1.029 1.354v.019c.652.167 1.25.686 1.25 1.549 0 .557-.24.993-.598 1.29-.44.389-1.166.584-2.296.584a10.84 10.84 0 0 1-1.386-.084v-6.15zM63.541 26.395l-.487-1.54c-.119-.38-.22-.807-.312-1.168h-.018c-.092.361-.184.797-.294 1.168l-.478 1.54h1.59zm-1.772.863l-.533 1.772h-1.167l1.984-6.253h1.442l2.012 6.253h-1.213l-.56-1.772H61.77zM66.002 22.777h1.13v5.298h2.544v.955h-3.674zM71.742 22.777h3.334v.678h-2.534v2.077h2.341v.668h-2.341v2.83h-.8zM76.335 25.94c0 1.337.716 2.533 1.974 2.533 1.268 0 1.984-1.178 1.984-2.597 0-1.243-.643-2.542-1.974-2.542-1.323 0-1.984 1.234-1.984 2.607m4.803-.102c0 2.152-1.295 3.293-2.874 3.293-1.636 0-2.783-1.28-2.783-3.173 0-1.985 1.221-3.284 2.874-3.284 1.69 0 2.783 1.308 2.783 3.164M82.608 25.709h.817c.854 0 1.396-.473 1.396-1.188 0-.807-.579-1.16-1.424-1.169-.386 0-.661.038-.79.075v2.282zm-.8-2.848c.404-.084.983-.13 1.534-.13.854 0 1.405.158 1.791.51.312.278.487.705.487 1.188 0 .825-.514 1.373-1.166 1.595v.028c.477.167.761.612.908 1.262.203.872.35 1.475.478 1.716h-.826c-.101-.177-.24-.714-.414-1.494-.183-.862-.514-1.187-1.24-1.215h-.752v2.709h-.8v-6.17zM87.181 22.777v3.702c0 1.4.615 1.994 1.442 1.994.918 0 1.506-.612 1.506-1.994v-3.702h.808v3.646c0 1.92-1 2.709-2.342 2.709-1.267 0-2.222-.733-2.222-2.672v-3.683h.808zM97.174 26.284c-.047-.872-.102-1.92-.093-2.7h-.027a37.772 37.772 0 0 1-.78 2.375l-1.093 3.034h-.607l-1-2.978a28.555 28.555 0 0 1-.717-2.43h-.018c-.02.779-.065 1.827-.12 2.764l-.165 2.681h-.763l.432-6.253h1.02l1.056 3.025c.257.77.468 1.456.624 2.105h.028c.156-.63.376-1.317.652-2.105l1.102-3.025h1.02l.385 6.253h-.78l-.156-2.746z"/></g><g fill="#18273B"><path d="M42.24 38.529c0 .21-.178.391-.387.391a.391.391 0 0 1-.387-.391.39.39 0 0 1 .387-.384c.21 0 .388.18.388.384zm-1.005 0c0 .21-.171.391-.387.391a.396.396 0 0 1-.387-.391c0-.203.178-.384.387-.384a.39.39 0 0 1 .387.384zm1.96-2.43c.029.474-.143.842-.508 1.098-.327.233-.767.346-1.325.346-.656 0-1.155-.188-1.49-.556-.298-.324-.447-.768-.447-1.324 0-.452.097-.918.298-1.4l.812-.496c-.29.654-.439 1.241-.439 1.76 0 .865.44 1.377 1.266 1.37.357 0 .61-.03.767-.098.298-.113.462-.346.491-.7-.461-.037-.767-.226-.915-.572l.327-.677c.186.474.38.632.856.632h.306v.617z"/><path d="M46.432 35.023c0-.67-.26-1-.781-1-.53 0-.79.33-.79 1 0 .67.26 1 .79 1 .52 0 .781-.33.781-1zm1.78 1.076h-.096c-.44 0-.782-.158-1.02-.474-.18.632-.73 1-1.445 1-.678 0-1.222-.33-1.423-.902-.216.248-.521.376-.923.376h-.239v-.632h.194c.529 0 .826-.24.886-.722.127-.88.626-1.317 1.505-1.317.483 0 .841.113 1.08.339.215.203.35.534.416.978.082.489.388.737.917.737l.148-.015v.632z"/><path d="M49.932 34.768c0 .383-.127.7-.38.955-.253.248-.596.376-1.02.376h-.477v-.632h.44c.483 0 .729-.256.729-.767v-3.227l.708-.211v3.506zM52.344 36.099h-.79c-.632 0-.982-.391-.982-.97v-3.656l.707-.226v3.859c0 .24.12.361.365.361h.7v.632z"/><path d="M56.283 36.099h-4.126v-.632h.85v-1.286c0-.422.133-.775.394-1.054.268-.278.64-.42 1.11-.42.402 0 .752.15 1.05.443l-.521.482c-.18-.219-.38-.324-.611-.324-.425 0-.715.324-.715.752v1.407h2.57v.632z"/><path d="M57.98 34.768c0 .383-.126.7-.38.955-.253.248-.595.376-1.02.376h-.477v-.632h.44c.484 0 .73-.256.73-.767v-3.227l.707-.211v3.506zM59.328 36.099h-.708v-4.626l.708-.226zM65.002 33.842h-2.39l.357-.436h.365v-.15c0-.565.35-1.009.938-1.009.231 0 .455.106.656.316l-.328.324c-.112-.143-.238-.211-.38-.211-.29 0-.432.173-.432.512v.218h1.214v.436zm2.74 2.257h-.312c-.499 0-.864-.173-1.095-.527-.246.354-.64.527-1.176.527h-2.644c-.804 0-1.34-.52-1.34-1.294v-.76l.699-.722v1.407c0 .489.246.737.738.737h2.51c.498 0 .744-.248.744-.737v-3.273l.693-.21v3.257c0 .64.305.963.916.963h.268v.632z"/><path d="M74.347 36.099h-6.77v-.632h.88v-1.903l.707-.203v2.106h1.474v-2.22l.708-.21v2.43h1.49v-2.55l.707-.21v2.76h.804z"/><path d="M77.384 34.489c0-.67-.246-1.008-.73-1.008-.491 0-.737.338-.737 1.008 0 .67.246 1 .737 1 .484 0 .73-.33.73-1m.708 0c0 .452-.105.82-.306 1.098-.246.339-.625.512-1.132.512-.432 0-.774-.135-1.035-.399-.238.264-.603.399-1.095.399h-.335v-.617h.29c.485 0 .73-.248.73-.752v-.241c0-.459.105-.827.306-1.113.246-.339.625-.504 1.14-.504.506 0 .885.165 1.131.504.201.286.306.654.306 1.113M84.108 33.24l-.231.692c-.26-.406-.566-.609-.908-.609-.492 0-.738.256-.738.767v.37h1.84v1.511c0 .55-.209.963-.626 1.241-.342.218-.79.331-1.348.331-.767 0-1.318-.218-1.646-.647-.275-.338-.447-.895-.514-1.67l.715-.218c0 .7.112 1.181.336 1.46.223.278.595.42 1.11.42.35 0 .64-.067.855-.195a.781.781 0 0 0 .418-.722v-.888h-1.847v-1.045c0-.813.544-1.332 1.407-1.332.462 0 .857.18 1.177.534M88.717 36.099h-3.97l.425-.617h1.832v-1.43c0-.488-.26-.736-.775-.736-.424 0-.76.218-1.005.654v-.812c.335-.294.67-.444 1.005-.444.44 0 .79.12 1.066.353.275.234.409.542.409.933v1.467h1.013v.632z"/><path d="M90.972 31.646c0 .21-.178.39-.387.39a.395.395 0 0 1-.38-.39c0-.211.179-.384.38-.384a.39.39 0 0 1 .387.384zm-.998 0c0 .21-.178.39-.387.39a.385.385 0 0 1-.38-.39c0-.211.164-.384.38-.384a.39.39 0 0 1 .387.384zm1.631 4.453h-.447c-.439 0-.781-.135-1.035-.399-.253.264-.603.399-1.057.399h-.536v-.617h.49c.5 0 .746-.256.746-.767v-1.798l.7-.21v2.03c0 .497.246.745.737.745h.402v.617z"/><path d="M93.377 31.646c0 .21-.179.39-.387.39a.396.396 0 0 1-.388-.39.39.39 0 0 1 .388-.384.39.39 0 0 1 .387.384zm1.125 4.453h-.447c-.44 0-.782-.135-1.035-.399-.254.264-.603.399-1.058.399h-.536v-.617h.491c.5 0 .745-.256.745-.767v-1.798l.7-.21v2.03c0 .497.246.745.738.745h.402v.617z"/><path d="M97.517 34.489c0-.67-.245-1.008-.73-1.008-.491 0-.737.338-.737 1.008 0 .67.246 1 .737 1 .485 0 .73-.33.73-1m.708 0c0 .452-.105.82-.306 1.098-.246.339-.625.512-1.132.512-.432 0-.774-.135-1.035-.399-.238.264-.603.399-1.095.399h-.335v-.617h.29c.485 0 .73-.248.73-.752v-.241c0-.459.105-.827.306-1.113.246-.339.625-.504 1.14-.504.506 0 .885.165 1.131.504.201.286.306.654.306 1.113"/></g><path d="M20.488 8.943c-.365.832-.121 1.488-.017 1.768-.228-1.377.973-2.184 1.66-1.715-.752.54-.396 2.013.757 2.167 1.543.206 1.993-1.711 1.025-2.879a1.903 1.903 0 0 0-.697-.523c-1.105-.397-2.252.1-2.728 1.182M24.048 2.003c-1.08-.047-1.15.467-.786.856.776.83 2.94.937 2.95.338.007-.382-1.255-.783-1.777-.65-.084.022-.205-.184-.04-.27.295-.157.983-.007 1.53.186-.852-.35-1.49-.443-1.877-.46M14.65 18.82c-1.13 3.335 2.367 6.089 4.83 4.686 1.084-.617 1.935-2.082 1.421-3.374 1.977-.04 3.31 3.085 1.06 5.504l-.063.065c3.381-2.372 3.631-7.536-.746-9.569-4.08-1.435-6.112 1.534-6.502 2.687M8.787 25.42c-.11 2.037 2.019 3.85 3.591 2.462.11-.098.475-.459.522-1.008 1.166.64 1.052 2.83-.964 3.494 3.39-.396 4.491-4.32 1.814-6.46-.245-.196-.618-.394-.897-.536-2.064-.804-3.964.153-4.066 2.048M9.11 33.503c.01.045.026.103.037.148-.079-.774.542-.934.96-.62.107.08.162.169.18.198-.107.084-.272.076-.341.22a.802.802 0 0 0-.054.596c.092.364.435.676.78.711.784.078 1.486-1.012.709-1.926a1.9 1.9 0 0 0-.692-.5c-1.088-.443-1.754.279-1.578 1.173" fill="#7E3077"/><path d="M19.316.391c-.665.022-1.116.179-.984.343.138.173.986.256 1.711.168-.03.205-1.456.552-2.585.407 1.769.445 4.363-.384 4.452-.442l.005-.038-.051-.042c-.309-.158-1.51-.429-2.548-.396M12.85 9.54c-1.67 2.634 1.048 5.568 4.406 4.756 1.195-.29 2.149-.967 2.832-2.015-1.657 1.707-4.315 1.168-4.417-.447.05-.024.132-.006.186.006.651.142 1.27-.178 1.568-.332.24-.124.815-.647.998-1.096.533-1.31-.373-2.277-1.112-2.608-2.72-.868-4.445 1.71-4.461 1.736M17.189 3.194c-1.668.822-1.713 1.818-.708 2.232 1.623.669 4.538-.682 4.235-1.632-.036-.113-.125-.217-.266-.31-1.062-.523-2.683.2-2.877.75-.117.045-.807-.084-.478-.642.133-.224.593-.586 1.452-.866-.28.067-.8.193-1.358.468M8.16 16.56c-.647 2.479 1.586 4.619 3.677 3.522 1.56-.818 1.843-3.378.047-4.267-1.62-.68-2.651.912-2.183 2.107.126.322.344.5.387.533-.828.578-2.116-.388-1.84-2.173-.026.083-.065.193-.087.278M3.945 28.413c.168 1.841 2 3.497 3.067 2.294.627-.706.543-2.298-.745-2.927-.995-.415-1.623.373-1.159 1.453.1.232.258.443.422.563-.438.45-1.37-.33-1.595-1.6.003.065.004.152.01.217M3.634 21.694c.026.57.195 2.038 1.217 3.342-1.056-1.729-.782-3.52-.002-3.437.013.042.003.103-.004.147-.056.355.01.79.199 1.292.002.007.26.683.72 1.006.806.565 1.45-.286 1.63-.661.626-1.303.057-3.617-1.474-4.36-1.682-.546-2.35 1.233-2.286 2.67" fill="#E57243"/><path d="M8.336 6.67c-1.086 1.434-.48 2.84 1.137 2.64 2.137-.267 4.13-2.85 3.44-4.46.08 1.179-1.27 2.46-2.18 2.373.005-.04.05-.08.076-.11.413-.447.692-1.323.19-1.677-.372-.261-1.271-.008-2.004.564a3.63 3.63 0 0 0-.659.67M12.74 1.173c-.818.349-1.103.662-.947.733.406.184 1.965-.542 2.15-.763.063-.076.352-.054.38-.004.09.16-.67.568-1 .736.09-.04 2.216-.974 1.813-1.2-.394-.14-1.579.15-2.395.498M6.953 4.21c-.68.57-1.017 1.142-.692 1.178.237.026.865-.271 1.35-.708.055.373-1.05 1.438-1.994 1.797 1.479-.269 4.157-2.723 3.538-3.243-.377-.153-1.386.294-2.202.977M.364 17.627c-.075 1.398.447 2.542.93 2.04.572-.594.484-2.722-.11-2.68-.073.006-.125.056-.144.075.032-.646.452-1.295.89-.844.081.083.16.202.233.353-.176-.656-.402-.863-.62-.99-.794-.274-1.137 1.26-1.18 2.046M5.589 13.274c-.14.334-.157.553-.175.784.298-1.23 1.435-1.584 1.817-1.016-.375.255-.763.518-.72 1.213.02.343.256.783.85.897 1.246.24 2.225-1.42 1.516-2.572-.21-.342-.453-.47-.687-.592-1.3-.511-2.268.49-2.601 1.286M1.583 11.104c-.659 1.744-.158 2.808.697 2.33.248-.139.61-.471.934-1.271.187-.46.238-.83.257-.97.027-.2-.062-.39-.043-.587.611-.42 1.155.257.893 1.617-.009.045-.09.452-.256.896.896-1.706 1.174-3.866.16-4.36-1.125-.407-2.218 1.223-2.642 2.345M1.118 24.091c.395 1.547 1.536 3.454 1.964 2.605.12-.238.247-.753.172-1.853-.07 1.54-.601 1.07-.762.89-.09-.1-.223-.301-.328-.565.539 0 .257-2.433-.57-3.243-.077-.076-.134-.104-.164-.12-.714-.147-.518 1.477-.312 2.286" fill="#EEA139"/><path d="M35.126 17.824c-.395.056-.707.845-.778 1.608-.113 1.19.204 1.802.543 1.754.087-.013.176-.07.26-.172.441-.543.456-2.193.021-2.132h-.001c-.119.02-.272.186-.343.52-.157-.431-.016-1.387.397-1.568l-.011-.01a.313.313 0 0 0-.088 0M33.531 21.744c-1.137.16-2.058 2.765-1.484 3.76.067.117.158.2.27.24-.009.127-.393.604-.846.668a.684.684 0 0 1-.562-.174c-.305-.26-.484-.947-.456-1.745-.016.095-.041.22-.055.317-.247 1.633.237 3.227 1.326 3.072.3-.043.647-.218 1.037-.562 1.532-1.353 2.42-4.907 1.054-5.564a.77.77 0 0 0-.284-.012" fill="#1F67A2"/><path d="M24.543 27.729c-.644 1.33.13 2.423 1.404 1.982 1.082-.376 1.854-1.762.987-2.214-.219-.115-.493-.112-.772.008.013-.558 1.286-1.548 2.105-.704-.168-.338-.371-.48-.666-.614-1.645-.521-2.765.936-3.058 1.542M22.927 33.772c1.26-.315 1.975-.203 1.661.26-.022.034-.154.21-.531.408-.293-.474-3.506.69-3.58 1.297-.07.562 3.445-.08 5.01-1.329.214-.17.867-.747.293-1.01-.668-.178-1.509-.066-2.903.387a3.21 3.21 0 0 1 .05-.013M29.096 29.31c1.056-.29 1.189.372.877.94-.111.202-.27.36-.3.39-.023-.526-1.096-.268-1.852.596-.575.659-.87 1.553-.045 1.513 1.383-.067 3.833-2.657 2.903-3.515a.968.968 0 0 0-.212-.13c-.417-.124-.78-.069-1.391.211l.02-.006M27.94 4.185c.786.907 1.688 1.154 1.746.777.078-.502-1.254-1.536-1.565-1.376-.154.08.143.519.46.757-.19.065-.832-.382-1.127-.937.087.28.313.578.487.779M30.756 7.394c1.423 3.124 2.36 3.325 2.492 2.878.276-.929-1.504-3.667-2.239-3.993-.402-.073.577 1.683.836 2.058l.071.099c-.066.101-.581 0-1.718-2.37.076.196.253.658.558 1.328M32.791 14.177c.195 1.85 1.164 2.895 1.773 2.356.556-.493.33-2.274-.237-2.943.202-.525.665.052.915.608.074.165.323.773.417 1.665-.094-2.012-1.043-3.88-1.827-4.206-1.102-.34-1.121 1.758-1.04 2.52" fill="#2067A2"/><path d="M25.042 6.688c.325 1.236 1.586 1.564 1.922.943a.745.745 0 0 0 .063-.426c.679.483.96 1.905-.242 2.164 1.68.038 1.914-1.77.434-3.336-.56-.593-1-.706-1.166-.749-.831-.16-1.219.61-1.01 1.404M25.244 13.5c-.438 2.619 1.974 4.751 3.687 3.26 1.223-1.066.55-3.39-.727-3.637-.034-.2.734-1.185 1.853-.404.311.217.777.747 1.067 1.524-.391-1.558-1.076-2.487-2.29-3.105-1.544-.59-3.288.558-3.59 2.361M16.553 28.29c-.953 2.64 1.236 5.343 4.193 4.076 2.13-.911 2.953-3.8.836-4.82-2.112-.834-3.617 1.3-2.89 2.662.02.039.135.243.322.385-1.276.663-2.745-.63-2.324-2.626-.041.097-.1.225-.137.324M14.475 34.763c-.194.123-1.096.747.202 1.027.871.187 1.815-.072 1.683-.462.294-.06.974.201.723.557-.029.04-.2.242-.822.33 1.759-.15 1.822-.97 1.363-1.367a1.67 1.67 0 0 0-.159-.12c-1.03-.621-2.272-.417-2.99.035M26.219 20.768c-.456 1.444.753 2.763 1.93 2.106.524-.293.873-.86.848-1.382.868.196.915 1.877-.476 2.82 2.26-1.048 2.607-4.082.58-5.073-1.41-.495-2.58.57-2.882 1.529" fill="#562F74"/></g></svg>